<svg enable-background="new 0 0 64 64" height="512" viewBox="0 0 64 64" width="512" xmlns="http://www.w3.org/2000/svg"><path d="m26 26c-2.209 0-4 1.791-4 4v7.5c0 1.381-1.119 2.5-2.5 2.5-.642 0-1.222-.249-1.665-.647l-.035.158-4.099 15.489h2.299c1 0 1.446.335 2.065.8.712.535 1.599 1.2 3.265 1.2 1.667 0 2.553-.666 3.266-1.2.457-.343.832-.616 1.405-.733z" fill="#f0bc5e"/><path d="m41.607 25.319c-1.12.434-2.334.681-3.607.681v29.069c.566.119.939.39 1.394.731.713.535 1.601 1.2 3.269 1.2s2.555-.665 3.269-1.2c.619-.465 1.067-.8 2.068-.8h2.336z" fill="#f0bc5e"/><path d="m46.465 23h10.535c3.309 0 6-2.691 6-6 0-2.983-2.191-5.458-5.046-5.917-.469-5.637-5.198-10.083-10.954-10.083-4.167 0-7.912 2.336-9.776 5.955-1.403-1.215-3.227-1.955-5.224-1.955-1.2 0-2.334.273-3.356.748-1.654-1.13-3.63-1.748-5.644-1.748-4.822 0-8.872 3.376-9.801 8.003-3.225-.086-6.053 2.034-6.923 5.057-2.929.396-5.195 2.905-5.195 5.94 0 3.309 2.691 6 6 6h8.97c-.03.33-.051.662-.051 1v7.5c0 1.93 1.57 3.5 3.5 3.5s3.5-1.57 3.5-3.5v-7.5c0-1.304.836-2.416 2-2.829l.002 31.875c0 2.18 1.774 3.954 4.044 3.954 1.173 0 2.228-.513 2.953-1.327.051.057.104.113.159.168.747.747 1.739 1.158 2.886 1.158h.001c2.18 0 3.954-1.774 3.954-3.954v-32.09c3-.271 5.647-1.759 7.466-3.955zm.535-20c4.658 0 8.5 3.557 8.954 8.097-2.811.497-4.954 2.952-4.954 5.903h2c0-2.206 1.794-4 4-4s4 1.794 4 4-1.794 4-4 4h-9.205c.77-1.501 1.205-3.201 1.205-5v-7.5c0-1.93-1.57-3.5-3.5-3.5s-3.5 1.57-3.5 3.5v6.5c0 2.206-1.794 4-4 4h-.726c1.667-1.467 2.726-3.61 2.726-6 0-1.627-.491-3.141-1.329-4.405 1.375-3.368 4.65-5.595 8.329-5.595zm-9 10c0 3.309-2.691 6-6 6s-6-2.691-6-6 2.691-6 6-6 6 2.691 6 6zm-21.574 14h-9.345c-2.206 0-4-1.794-4-4s1.794-4 4-4 4 1.794 4 4h2c0-2.87-2.026-5.272-4.722-5.86.747-1.861 2.577-3.14 4.641-3.14.274 0 .559.027.873.082l1.061.186.107-1.072c.408-4.102 3.83-7.196 7.959-7.196 1.344 0 2.628.328 3.781.95-1.699 1.468-2.781 3.633-2.781 6.05 0 2.397 1.065 4.546 2.741 6.013-4.91.115-9.027 3.457-10.315 7.987zm21.574-2h-1v34.045c0 1.078-.876 1.954-2.046 1.954-.521 0-1.012-.203-1.381-.572-.37-.369-.573-.86-.573-1.382v-18.045h-2v18.045c0 1.078-.876 1.955-2.044 1.955-1.078 0-1.954-.876-1.954-1.954l-.002-34.046h-1c-2.757 0-5 2.243-5 5v7.5c0 .827-.673 1.5-1.5 1.5s-1.5-.673-1.5-1.5v-7.5c0-4.962 4.038-9 9-9h11c3.309 0 6-2.691 6-6v-6.5c0-.827.673-1.5 1.5-1.5s1.5.673 1.5 1.5v7.5c0 4.962-4.038 9-9 9z"/><path d="m32.949 23.316-1.898-.632-2.438 7.316h3.769l-3.277 6.553 1.79.894 4.723-9.447h-4.231z"/><path d="m49 27h2v2h-2z"/><path d="m46 30h2v2h-2z"/><path d="m49 33h2v2h-2z"/><path d="m52 30h2v2h-2z"/><path d="m7 37h2v2h-2z"/><path d="m4 40h2v2h-2z"/><path d="m7 43h2v2h-2z"/><path d="m10 40h2v2h-2z"/><path d="m53 44h2v2h-2z"/><path d="m50 47h2v2h-2z"/><path d="m53 50h2v2h-2z"/><path d="m56 47h2v2h-2z"/><path d="m58 35h2v2h-2z"/><path d="m55 38h2v2h-2z"/><path d="m58 41h2v2h-2z"/><path d="m61 38h2v2h-2z"/></svg>