<svg enable-background="new 0 0 64 64" height="512" viewBox="0 0 64 64" width="512" xmlns="http://www.w3.org/2000/svg"><path d="m33.492 51.746-6.255-3.127c-1.393 3.167-4.555 5.381-8.237 5.381-4.971 0-9-4.029-9-9s4.029-9 9-9c3.682 0 6.844 2.214 8.237 5.381l6.255-3.127c-.157-.336-.325-.67-.507-.998l1.426-2.302-5.363-5.363-2.303 1.425c-1.055-.585-2.172-1.048-3.332-1.381l-.621-2.635h-7.584l-.62 2.635c-1.16.333-2.277.795-3.332 1.381l-2.303-1.425-5.363 5.363 1.426 2.302c-.586 1.057-1.049 2.173-1.381 3.332l-2.635.62v7.584l2.635.62c.332 1.159.795 2.275 1.381 3.332l-1.426 2.302 5.363 5.363 2.303-1.425c1.056.586 2.172 1.049 3.332 1.381l.62 2.635h7.584l.62-2.634c1.16-.333 2.276-.795 3.332-1.381l2.303 1.425 5.363-5.363-1.426-2.302c.183-.329.351-.663.508-.999z" fill="#f0bc5e"/><path d="m59 49h2v2h-2z"/><path d="m55 49h2v2h-2z"/><path d="m63 41v-2h-26v-3.618l-9.339 4.67c-1.768-3.092-5.052-5.052-8.661-5.052-5.514 0-10 4.486-10 10s4.486 10 10 10c3.609 0 6.893-1.96 8.661-5.052l9.339 4.67v-3.618h16v-2h-18v2.382l-12.764-6.382 12.764-6.382v2.382zm-44 12c-4.411 0-8-3.589-8-8s3.589-8 8-8c2.849 0 5.448 1.526 6.876 3.944l-1.796.898c-1.079-1.751-2.97-2.842-5.08-2.842-3.309 0-6 2.691-6 6s2.691 6 6 6c2.11 0 4.001-1.091 5.081-2.841l1.796.898c-1.429 2.417-4.028 3.943-6.877 3.943zm3.28-5.742c-.734 1.076-1.939 1.742-3.28 1.742-2.206 0-4-1.794-4-4s1.794-4 4-4c1.341 0 2.546.666 3.28 1.742l-4.516 2.258z"/><path d="m39 53h18v2h-18z"/><path d="m55 57h2v2h-2z"/><path d="m51 57h2v2h-2z"/><path d="m39 57h10v2h-10z"/><path d="m35 43h2v2h-2z"/><path d="m39 43h2v2h-2z"/><path d="m43 43h2v2h-2z"/><path d="m58.381 25.353c2.935-2.654 4.619-6.377 4.619-10.353s-1.7-7.779-4.664-10.433c-2.963-2.652-6.942-3.921-10.931-3.479-6.475.717-11.66 5.944-12.329 12.429-.463 4.489 1.242 8.841 4.548 11.833-.96.501-1.624 1.494-1.624 2.65 0 1.654 1.346 3 3 3h1.091c.513 3.386 3.423 6 6.909 6 3.519 0 6.432-2.613 6.92-6h1.08c1.654 0 3-1.346 3-3 0-1.154-.662-2.146-1.619-2.647zm-21.315-11.631c.573-5.555 5.014-10.032 10.56-10.645 3.466-.383 6.801.674 9.376 2.98 2.541 2.276 3.998 5.535 3.998 8.943 0 3.625-1.618 7.019-4.441 9.311-.26.211-.498.446-.726.689h-5.833v-7h-2v7h-5.82c-.22-.233-.448-.456-.695-.655-3.189-2.564-4.84-6.535-4.419-10.623zm11.934 21.278c-2.432 0-4.417-1.691-4.889-4h9.788c-.465 2.279-2.485 4-4.899 4zm8-6h-16c-.552 0-1-.449-1-1s.448-1 1-1h16c.552 0 1 .449 1 1s-.448 1-1 1z"/><path d="m49 19c-2.206 0-4-1.794-4-4s1.794-4 4-4 4 1.794 4 4-1.794 4-4 4z" fill="#f0bc5e"/><path d="m41 15h-2c0-3.824 2.129-7.257 5.555-8.96l.891 1.791c-2.743 1.362-4.446 4.109-4.446 7.169z"/><path d="m47.222 7.198-.443-1.95c.725-.165 1.472-.248 2.221-.248v2c-.6 0-1.198.067-1.778.198z"/><path d="m54.556 23.315-1.111-1.662c.492-.329.948-.714 1.355-1.144l1.451 1.376c-.51.538-1.08 1.019-1.695 1.43zm3.035-3.194-1.717-1.024c.304-.509.551-1.052.734-1.615l1.9.621c-.229.703-.537 1.382-.917 2.018zm1.367-4.192-1.992-.184c.022-.245.034-.494.034-.745 0-.301-.017-.598-.049-.891l1.988-.219c.04.364.061.735.061 1.11 0 .313-.014.623-.042.929z"/></svg>