<?xml version="1.0" encoding="UTF-8" standalone="no"?>
<svg width="47px" height="34px" viewBox="0 0 47 34" version="1.1" xmlns="http://www.w3.org/2000/svg" xmlns:xlink="http://www.w3.org/1999/xlink">
    <title>Lightrains Technolabs Pvt Ltd</title>
    <desc>Engineering Blockchain and smart contracts</desc>
    <defs></defs>
    <g id="Page-1" stroke="none" stroke-width="1" fill="none" fill-rule="evenodd">
        <path d="M6.34033414,-3.09870896 C6.35933414,-3.22970896 6.35933414,-3.25270896 6.36733414,-3.27470896 C6.38733414,-3.41070896 6.39333414,-3.42870896 6.39533414,-3.44870896 C6.42333414,-3.58470896 6.42533414,-3.60170896 6.42933414,-3.62170896 C6.46733414,-3.75270896 6.47133414,-3.77370896 6.48133414,-3.79470896 C6.52233414,-3.91970896 6.52633414,-3.94470896 6.53533414,-3.96470896 C6.57933414,-4.08370896 6.59033414,-4.10970896 6.60333414,-4.13170896 C6.64633414,-4.24070896 6.65933414,-4.27170896 6.67233414,-4.29970896 C6.72333414,-4.39770896 6.74033414,-4.43070896 6.75433414,-4.46070896 C6.80333414,-4.55270896 6.82733414,-4.58470896 6.84533414,-4.61770896 C6.89933414,-4.70170896 6.91733414,-4.73370896 6.93833414,-4.76870896 C6.99333414,-4.84970896 7.01533414,-4.88170896 7.03733414,-4.91270896 C7.10733414,-4.99470896 7.12533414,-5.02270896 7.14933414,-5.05270896 C7.23133414,-5.14470896 7.24733414,-5.16470896 7.26433414,-5.18570896 C7.30533414,-5.22970896 7.34833414,-5.27370896 7.39333414,-5.31670896 C7.42933414,-5.35870896 7.47333414,-5.40070896 7.52333414,-5.44070896 C7.61033414,-5.51770896 7.63433414,-5.53570896 7.65533414,-5.55670896 C7.75933414,-5.63670896 7.77633414,-5.65270896 7.79133414,-5.66470896 C7.82433414,-5.69070896 7.85633414,-5.71470896 7.89033414,-5.73370896 C7.97333414,-5.78970896 8.00533414,-5.81470896 8.04233414,-5.83170896 C8.12233414,-5.88270896 8.15733414,-5.90070896 8.18833414,-5.91970896 C8.27733414,-5.96870896 8.31033414,-5.98270896 8.33933414,-5.99870896 C8.43533414,-6.04770896 8.46333414,-6.05770896 8.49333414,-6.06870896 C8.59533414,-6.11370896 8.62433414,-6.12670896 8.65333414,-6.13670896 C8.76633414,-6.17870896 8.78533414,-6.18570896 8.81233414,-6.19370896 C8.84333414,-6.20770896 8.87233414,-6.21670896 8.91233414,-6.22370896 C9.01333415,-6.25370896 9.04733415,-6.26570896 9.07933415,-6.27470896 C9.18633415,-6.29570896 9.22133415,-6.30470896 9.25533415,-6.30970896 C9.35933415,-6.32970896 9.39433415,-6.33370896 9.43333415,-6.34370896 C9.53833415,-6.35670896 9.57333415,-6.35970896 9.60833415,-6.36270896 C9.64233415,-6.36470896 9.68033415,-6.37270896 9.71433415,-6.37270896 C9.84333415,-6.38070896 9.91033415,-6.38070896 9.96833415,-6.38070896 L36.6338832,-5.84770907 C38.6398832,-5.84770907 40.2718832,-4.22070907 40.2718832,-2.21470907 C40.2718832,-0.203709073 38.6398832,1.42529093 36.6338832,1.42529093 L18.7403342,0.892291037 L38.4753342,20.6262911 C38.5193342,20.6682911 38.5613342,20.7092911 38.5993342,20.7552911 C38.6713342,20.8422911 38.6943342,20.8672911 38.7163342,20.8882911 C38.7953342,20.9942911 38.8093342,21.0092911 38.8223342,21.0282911 C38.9013342,21.1412911 38.9153342,21.1552911 38.9243342,21.1752911 C39.0003342,21.2902911 39.0113342,21.3072911 39.0253342,21.3242911 C39.0873342,21.4422911 39.1003342,21.4612911 39.1073342,21.4812911 C39.1683342,21.5982911 39.1793342,21.6212911 39.1923342,21.6432911 C39.2423342,21.7522911 39.2553342,21.7822911 39.2653342,21.8072911 C39.3053342,21.9132911 39.3183342,21.9462911 39.3313342,21.9762911 C39.3643342,22.0802911 39.3743342,22.1142911 39.3893342,22.1432911 C39.4163342,22.2432911 39.4233342,22.2802911 39.4343342,22.3212911 C39.4573342,22.4152911 39.4643342,22.4522911 39.4723342,22.4912911 C39.4893342,22.5892911 39.5003342,22.6282911 39.5023342,22.6662911 C39.5153342,22.7682911 39.5193342,22.8052911 39.5243342,22.8412911 C39.5323342,22.9592911 39.5323342,22.9872911 39.5343342,23.0182911 C39.5383342,23.0742911 39.5383342,23.1322911 39.5383342,23.1862911 C39.5383342,23.2682911 39.5383342,23.3232911 39.5343342,23.3802911 C39.5303342,23.4952911 39.5243342,23.5262911 39.5243342,23.5532911 C39.5063342,23.6862911 39.5053342,23.7082911 39.5023342,23.7292911 C39.4783342,23.8652911 39.4743342,23.8852911 39.4723342,23.9032911 C39.4453342,24.0382911 39.4363342,24.0572911 39.4343342,24.0772911 C39.3953342,24.2102911 39.3913342,24.2302911 39.3893342,24.2482911 C39.3473342,24.3732911 39.3363342,24.3992911 39.3313342,24.4212911 C39.2883342,24.5392911 39.2743342,24.5662911 39.2653342,24.5882911 C39.2183342,24.6962911 39.2053342,24.7272911 39.1923342,24.7552911 C39.1433342,24.8532911 39.1273342,24.8842911 39.1073342,24.9162911 C39.0573342,25.0052911 39.0413342,25.0402911 39.0253342,25.0732911 C38.9703342,25.1572911 38.9473342,25.1882911 38.9243342,25.2232911 C38.8723342,25.3052911 38.8493342,25.3362911 38.8223342,25.3672911 C38.7613342,25.4492911 38.7383342,25.4792911 38.7163342,25.5062911 C38.6363342,25.5992911 38.6223342,25.6202911 38.5993342,25.6402911 C38.5613342,25.6842911 38.5203342,25.7272911 38.4753342,25.7702911 C38.4323342,25.8112911 38.3903342,25.8552911 38.3463342,25.8962911 C38.2573342,25.9722911 38.2333342,25.9922911 38.2143342,26.0102911 C38.1103342,26.0932911 38.0903342,26.1052911 38.0743342,26.1192911 C38.0393342,26.1442911 38.0043342,26.1632911 37.9753342,26.1872911 C37.8943342,26.2432911 37.8593342,26.2662911 37.8263342,26.2872911 C37.7433342,26.3362911 37.7113342,26.3532911 37.6763342,26.3752911 C37.5893342,26.4222911 37.5563342,26.4372911 37.5243342,26.4542911 C37.4333342,26.4982911 37.4023342,26.5092911 37.3683342,26.5252911 C37.2703342,26.5712911 37.2443342,26.5812911 37.2153342,26.5902911 C37.1033342,26.6322911 37.0823342,26.6402911 37.0553342,26.6452911 C36.8543342,26.7102911 36.8183342,26.7162911 36.7813342,26.7262911 C36.6843342,26.7482911 36.6473342,26.7582911 36.6103342,26.7662911 C36.5133342,26.7842911 36.4753342,26.7882911 36.4353342,26.7972911 C36.3263342,26.8102911 36.2963342,26.8152911 36.2633342,26.8172911 C36.1393342,26.8272911 36.1123342,26.8302911 36.0843342,26.8302911 C36.0243342,26.8322911 35.9603342,26.8362911 35.9033342,26.8362911 L28.6813342,26.8362911 L34.2143342,35.1092911 C35.5343342,37.2002911 36.6853342,39.0862911 36.2923342,39.5902911 C35.9893342,39.9782911 33.6303342,38.5972911 32.7793342,37.8442911 L17.3273342,25.7692911 C17.2893342,25.7262911 17.2473342,25.6832911 17.2063342,25.6392911 C17.1313342,25.5512911 17.1093342,25.5292911 17.0913342,25.5052911 C17.0083342,25.4042911 16.9973342,25.3832911 16.9853342,25.3662911 C16.9023342,25.2552911 16.8913342,25.2382911 16.8823342,25.2222911 C16.8023342,25.1062911 16.7923342,25.0872911 16.7883342,25.0722911 C16.7183342,24.9532911 16.7053342,24.9332911 16.6993342,24.9152911 C16.6383342,24.7992911 16.6253342,24.7752911 16.6163342,24.7542911 C16.5663342,24.6412911 16.5523342,24.6152911 16.5443342,24.5872911 C16.4983342,24.4802911 16.4873342,24.4502911 16.4793342,24.4202911 C16.4423342,24.3192911 16.4303342,24.2852911 16.4203342,24.2472911 C16.3943342,24.1502911 16.3843342,24.1102911 16.3773342,24.0762911 C16.3533342,23.9802911 16.3433342,23.9412911 16.3373342,23.9022911 C16.3153342,23.8042911 16.3123342,23.7692911 16.3093342,23.7282911 C16.2943342,23.6292911 16.2873342,23.5892911 16.2873342,23.5522911 C16.2773342,23.4362911 16.2723342,23.4072911 16.2723342,23.3792911 C16.2703342,23.3222911 16.2703342,23.2672911 16.2703342,23.2052911 C16.2703342,23.1312911 16.2703342,23.0732911 16.2723342,23.0172911 C16.2813342,22.9032911 16.2833342,22.8712911 16.2873342,22.8402911 C16.2983342,22.7112911 16.3053342,22.6852911 16.3093342,22.6652911 C16.3283342,22.5292911 16.3313342,22.5122911 16.3373342,22.4902911 C16.3663342,22.3562911 16.3693342,22.3382911 16.3773342,22.3202911 C16.4093342,22.1862911 16.4143342,22.1672911 16.4203342,22.1422911 C16.4583342,22.0202911 16.4683342,21.9972911 16.4793342,21.9752911 C16.5223342,21.8612911 16.5313342,21.8322911 16.5443342,21.8062911 C16.5873342,21.6982911 16.6023342,21.6692911 16.6163342,21.6422911 C16.6623342,21.5412911 16.6793342,21.5122911 16.6993342,21.4802911 C16.7473342,21.3902911 16.7683342,21.3562911 16.7883342,21.3232911 C16.8403342,21.2382911 16.8583342,21.2072911 16.8823342,21.1742911 C16.9363342,21.0932911 16.9593342,21.0612911 16.9853342,21.0272911 C17.0453342,20.9442911 17.0693342,20.9152911 17.0913342,20.8872911 C17.1743342,20.7972911 17.1883342,20.7762911 17.2063342,20.7542911 C17.2483342,20.7082911 17.2893342,20.6672911 17.3273342,20.6252911 C17.3723342,20.5792911 17.4203342,20.5402911 17.4603342,20.4992911 C17.5493342,20.4262911 17.5683342,20.4022911 17.5953342,20.3842911 C17.7013342,20.3012911 17.7203342,20.2892911 17.7363342,20.2752911 C17.7663342,20.2542911 17.7993342,20.2282911 17.8293342,20.2062911 C17.9133342,20.1542911 17.9473342,20.1312911 17.9803342,20.1092911 C18.0603342,20.0602911 18.0933342,20.0392911 18.1313342,20.0232911 C18.2163342,19.9742911 18.2493342,19.9592911 18.2823342,19.9402911 C18.3753342,19.8952911 18.4063342,19.8812911 18.4343342,19.8682911 C18.5383342,19.8242911 18.5673342,19.8172911 18.5943342,19.8032911 C18.6993342,19.7622911 18.7263342,19.7562911 18.7533342,19.7482911 C18.8693342,19.7102911 18.8903342,19.7042911 18.9143342,19.6982911 C18.9493342,19.6882911 18.9863342,19.6772911 19.0193342,19.6692911 C19.1173342,19.6452911 19.1573342,19.6352911 19.1933342,19.6322911 C19.2983342,19.6132911 19.3333342,19.6052911 19.3703342,19.6022911 C19.4773342,19.5882911 19.5083342,19.5792911 19.5453342,19.5772911 C19.5773342,19.5752911 19.6173342,19.5722911 19.6493342,19.5662911 C19.7813342,19.5622911 19.8403342,19.5602911 19.9033342,19.5602911 L27.1193342,19.5602911 L7.39333414,-0.169708962 C7.34833414,-0.212708962 7.30633414,-0.256708962 7.26433414,-0.302708962 C7.19133414,-0.389708962 7.16833414,-0.413708962 7.14933414,-0.435708962 C7.07133414,-0.540708962 7.05433414,-0.556708962 7.03733414,-0.574708962 C6.95933414,-0.686708962 6.95133414,-0.703708962 6.93833414,-0.722708962 C6.86733414,-0.836708962 6.85633414,-0.852708962 6.84533414,-0.870708962 C6.77533414,-0.988708963 6.76833414,-1.00570896 6.75433414,-1.02670896 C6.69433414,-1.14370896 6.68533414,-1.16370896 6.67233414,-1.18870896 C6.62433414,-1.30170896 6.60933414,-1.32870896 6.60333414,-1.35170896 C6.55533414,-1.46270896 6.54733414,-1.49270896 6.53533414,-1.52070896 C6.49933414,-1.62270896 6.49333414,-1.65970896 6.48133414,-1.69270896 C6.45433414,-1.79070896 6.44133414,-1.82770896 6.42933414,-1.86670896 C6.41033414,-1.95970896 6.39933414,-1.99970896 6.39533414,-2.03770896 C6.38133414,-2.13470896 6.37033414,-2.17570896 6.36733414,-2.21470896 C6.35233414,-2.31670896 6.34733414,-2.35270896 6.34033414,-2.38770896 C6.33233414,-2.50770896 6.33233414,-2.53670896 6.32833414,-2.56570896 C6.32633414,-2.62270896 6.32633414,-2.67570896 6.32633414,-2.73570896 C6.32633414,-2.80670896 6.32633414,-2.86270896 6.32833414,-2.92070896 C6.33933414,-3.03870896 6.33933414,-3.06970896 6.34033414,-3.09870896 Z" id="Shape" fill="#000000" transform="translate(23.299109, 16.638493) rotate(269.000000) translate(-23.299109, -16.638493) "></path>
    </g>
</svg>
