<?xml version="1.0" encoding="UTF-8" standalone="no"?>
<svg width="64px" height="64px" viewBox="0 0 64 64" version="1.1" xmlns="http://www.w3.org/2000/svg" xmlns:xlink="http://www.w3.org/1999/xlink">
    <!-- Generator: Sketch 3.7.2 (28276) - http://www.bohemiancoding.com/sketch -->
    <title>Combined Shape</title>
    <desc>Created with Sketch.</desc>
    <defs></defs>
    <g id="Page-1" stroke="none" stroke-width="1" fill="none" fill-rule="evenodd">
        <path d="M0,1.00528717 C0,0.450082397 0.442862511,0 1.00528717,0 L62.9947128,0 C63.5499176,0 64,0.442862511 64,1.00528717 L64,62.9947128 C64,63.5499176 63.5571375,64 62.9947128,64 L1.00528717,64 C0.450082397,64 0,63.5571375 0,62.9947128 L0,1.00528717 Z M8.34481747,58.9423744 C8.21350582,58.9256636 8.19050933,58.926065 8.16837306,58.9184502 C8.03204472,58.9008267 8.01394275,58.8951418 7.99391089,58.8934912 C7.85744294,58.8678689 7.84041062,58.8661659 7.82034386,58.8625156 C7.68870062,58.8268077 7.66763401,58.8231748 7.64646268,58.8135428 C7.52076617,58.7747306 7.49570017,58.7711675 7.47554614,58.7625179 C7.35579636,58.7206015 7.32960834,58.7100569 7.30738481,58.6974428 C7.19765096,58.6563517 7.1664288,58.6438947 7.13820619,58.6313853 C7.03933104,58.5821034 7.00603937,58.565682 6.97579961,58.5522077 C6.88295845,58.5048208 6.85054447,58.4813829 6.81723535,58.4639616 C6.73230572,58.4114358 6.69999645,58.393997 6.66463528,58.373611 C6.58268773,58.3200331 6.55030865,58.2985949 6.51892942,58.2771393 C6.43572024,58.208581 6.40741036,58.1910724 6.37699607,58.1675997 C6.28357899,58.0872178 6.2633028,58.0715692 6.2420093,58.0549383 C6.19730046,58.0147125 6.1525567,57.9724869 6.10877789,57.9282442 C6.066156,57.8929827 6.0233945,57.8497224 5.98252797,57.8004281 C5.90402134,57.7147852 5.88560522,57.691103 5.86424192,57.6704727 C5.78243905,57.5678848 5.7661448,57.5511666 5.75388484,57.5363783 C5.72731287,57.5038371 5.70275805,57.4722608 5.68316756,57.4385976 C5.62572754,57.3565876 5.60017287,57.3250288 5.58252972,57.2883311 C5.53014129,57.2092333 5.5115332,57.1745528 5.49199507,57.1438891 C5.44144927,57.0557579 5.42687547,57.0230072 5.41037179,56.9942909 C5.35970382,56.8991607 5.34921668,56.8713394 5.33769478,56.841536 C5.29092149,56.7403369 5.27741735,56.7115682 5.26691275,56.6827471 C5.22294703,56.5704973 5.2156165,56.5516224 5.2071465,56.5247661 C5.19260761,56.4940152 5.18310286,56.4651767 5.17540583,56.4253049 C5.14364771,56.3248439 5.13105615,56.2910585 5.12149905,56.2592204 C5.09863484,56.1526032 5.08902537,56.1177656 5.08343275,56.0838581 C5.06162075,55.980223 5.05701052,55.9452981 5.0463314,55.9064786 C5.03150088,55.8017214 5.0278905,55.7667791 5.02428012,55.7318368 C5.02168705,55.6978769 5.01302507,55.6600223 5.01243169,55.6260275 C5.00218155,55.4971867 5.00101224,55.430197 5,55.3722058 L5.06754071,28.7014159 C5.03253118,26.6957214 6.63080106,25.0355749 8.63649553,25.0005654 C10.6471892,24.9654686 12.3044235,26.5687901 12.339433,28.5744845 L12.1187998,46.4746104 L31.505371,26.3982103 C31.5465967,26.353484 31.5868575,26.3107749 31.6321873,26.2719779 C31.7179174,26.1984705 31.7425122,26.1750377 31.7631251,26.1526745 C31.8677302,26.0718366 31.8824836,26.0575769 31.9012538,26.0442473 C32.0128578,25.9632872 32.0266114,25.949045 32.0464513,25.9396974 C32.1601074,25.8617019 32.1769128,25.8504069 32.1936659,25.8361123 C32.3105659,25.7720624 32.3293361,25.7587328 32.3492109,25.7513848 C32.4651285,25.6883522 32.487933,25.6769524 32.5097027,25.6635705 C32.6178135,25.6116758 32.6475821,25.5981542 32.6724037,25.5877194 C32.7776895,25.5458755 32.8104576,25.5323016 32.8402261,25.51878 C32.9436344,25.4839699 32.9774547,25.4733781 33.0061885,25.4578743 C33.105702,25.4291331 33.1425742,25.4214885 33.183376,25.4097746 C33.2769603,25.3851376 33.3138325,25.3774929 33.3526869,25.3688135 C33.4503753,25.3501057 33.4891774,25.3384267 33.5271367,25.3357639 C33.6288943,25.3209857 33.6658188,25.3163406 33.7017261,25.310713 C33.8195685,25.3006549 33.8475642,25.3001662 33.8785246,25.2976255 C33.9344463,25.2926488 33.9924374,25.2916365 34.0464292,25.2906941 C34.1284167,25.289263 34.1834083,25.2883031 34.2404695,25.2913077 C34.3555218,25.2933001 34.3866218,25.2987581 34.4136176,25.2982869 C34.5469115,25.313963 34.5689256,25.3145789 34.5899748,25.3172119 C34.7263729,25.3388348 34.7464397,25.3424851 34.7644719,25.3441707 C34.8999225,25.3688105 34.9190767,25.3774775 34.9391086,25.3791282 C35.0727689,25.415801 35.0928357,25.4194514 35.1108679,25.4211369 C35.2365818,25.460949 35.2627698,25.4714936 35.2848538,25.4761088 C35.4035862,25.5170429 35.4308265,25.5305696 35.4529802,25.5391842 C35.561784,25.5842922 35.5930062,25.5967492 35.6212288,25.6092586 C35.720069,25.6565408 35.7513435,25.6719973 35.7836877,25.6914358 C35.8735468,25.7398749 35.9088207,25.7552616 35.9420949,25.7706833 C36.027042,25.8242089 36.0584387,25.8466644 36.0938347,25.86905 C36.1767298,25.919611 36.2081265,25.9420665 36.2395929,25.9685213 C36.3226451,26.0280809 36.3530419,26.0505539 36.3804217,26.0720793 C36.4748038,26.1504441 36.4960449,26.1640754 36.5164433,26.1867229 C36.5610997,26.2239492 36.6048087,26.2641925 36.6485876,26.3084352 C36.6903318,26.3507131 36.7350581,26.3919388 36.7768197,26.4352165 C36.8543614,26.5228766 36.8747772,26.5465239 36.8931061,26.5652068 C36.9779085,26.6677424 36.9902557,26.68753 37.0045328,26.7032832 C37.0301398,26.7378416 37.0497478,26.7725046 37.0742502,26.8010814 C37.1316554,26.8810917 37.1552627,26.915685 37.1768354,26.9483134 C37.2272765,27.0304456 37.2448324,27.0621441 37.2674399,27.0967548 C37.3159511,27.1829213 37.3315247,27.2156544 37.3490806,27.2473529 C37.3946621,27.3375711 37.4062014,27.3683744 37.4227924,27.40209 C37.4704957,27.4992723 37.4809479,27.5250938 37.4904527,27.5539323 C37.534401,27.6651822 37.5427663,27.6860394 37.5482367,27.712948 C37.6167347,27.912783 37.6233621,27.9486728 37.6340063,27.9854927 C37.6576959,28.0820939 37.6683401,28.1189138 37.6769846,28.1557685 C37.6966747,28.2524396 37.7013373,28.290364 37.711034,28.3302008 C37.7259344,28.4389574 37.7314572,28.4688655 37.7340328,28.5018256 C37.7461954,28.6256322 37.7496661,28.6525757 37.7501548,28.6805715 C37.7532017,28.7405274 37.758318,28.8044479 37.7593128,28.8614392 L37.8853541,36.0823392 L46.0605299,30.4057982 C48.1281742,29.0495062 49.9937993,27.8657663 50.5045813,28.2499104 C50.8978103,28.5460927 49.5581909,30.9288352 48.8201575,31.7928473 L37.0166712,47.4532317 C36.9743409,47.4919763 36.9320805,47.5347204 36.8888027,47.5764821 C36.8021251,47.6530065 36.7805124,47.6753871 36.7568302,47.6938032 C36.6572941,47.7785532 36.6364893,47.789918 36.6197013,47.8022129 C36.5101668,47.8871375 36.4933613,47.8984325 36.4775208,47.9077104 C36.3629347,47.9897227 36.3441121,48.0000527 36.3291842,48.0043139 C36.211424,48.0763801 36.1916539,48.0897272 36.1737614,48.0960404 C36.0588436,48.1590556 36.0350742,48.1724725 36.0142344,48.1818376 C35.9021243,48.2338021 35.8763726,48.2482537 35.8485165,48.2567412 C35.7423356,48.3046016 35.7125321,48.3161235 35.6826763,48.3246458 C35.5823374,48.3634029 35.548552,48.3759944 35.5107323,48.3866561 C35.4142009,48.414345 35.3743815,48.4250416 35.3405088,48.4326339 C35.2449423,48.4583057 35.2061228,48.4689848 35.1672334,48.4756645 C35.0696323,48.4993715 35.03469,48.5029819 34.9937486,48.506697 C34.8950255,48.5234225 34.8551537,48.5311195 34.8181594,48.5317653 C34.7023516,48.5437882 34.6734432,48.5492936 34.6454475,48.5497822 C34.5884911,48.5527767 34.5334995,48.5537366 34.4715089,48.5548187 C34.3975202,48.5561101 34.339529,48.5571224 34.2835026,48.5561 C34.1693629,48.549091 34.1373329,48.5476497 34.1062678,48.5441914 C33.9770955,48.5354444 33.9509773,48.5288992 33.9309105,48.5252489 C33.7945996,48.5086253 33.7775499,48.5059225 33.7554485,48.5003073 C33.6209628,48.4736504 33.6029132,48.470965 33.5847763,48.4632803 C33.4502382,48.4336238 33.4311538,48.4289562 33.4060529,48.4233934 C33.2834083,48.3875284 33.2602373,48.3779313 33.2380487,48.367317 C33.1233156,48.3263131 33.0941629,48.3178206 33.06794,48.3052763 C32.959206,48.2641677 32.9299486,48.2496761 32.9027084,48.2361495 C32.800921,48.1919192 32.7716287,48.1754279 32.7392845,48.1559894 C32.6484605,48.1095674 32.6140992,48.089164 32.5807552,48.069743 C32.4948606,48.0192344 32.4635512,48.0017781 32.4301374,47.9783577 C32.3482073,47.9257796 32.3158107,47.9033416 32.2813622,47.8779389 C32.1973276,47.8193966 32.1679132,47.7959064 32.1395335,47.7743984 C32.0480987,47.6929817 32.0268575,47.6793504 32.0045467,47.6617371 C31.9578208,47.6205463 31.9161115,47.5802681 31.8734547,47.5430069 C31.8266763,47.4988165 31.7868445,47.4515045 31.7451527,47.4122261 C31.6706105,47.3245137 31.6462826,47.3059354 31.6278141,47.2792537 C31.5429768,47.1747184 31.530647,47.1559307 31.5163699,47.1401775 C31.4948496,47.1105486 31.4682776,47.0780073 31.4457574,47.0483959 C31.3922993,46.9653162 31.3687094,46.9317228 31.3461368,46.8991118 C31.2957481,46.8199791 31.2741754,46.7873506 31.2575146,46.7496357 C31.2070386,46.6655038 31.191465,46.6327706 31.1718919,46.6001072 C31.1252757,46.5079067 31.1107368,46.4771558 31.0972501,46.4493869 C31.0514418,46.3461707 31.0439367,46.3172973 31.0294677,46.2905457 C30.9866414,46.1862772 30.9801711,46.1593861 30.9717011,46.1325298 C30.9316824,46.0172107 30.9253168,45.9963186 30.9188989,45.9724269 C30.9082896,45.9376068 30.8966455,45.9008044 30.8880708,45.8679491 C30.8623641,45.7703828 30.8516675,45.7305635 30.8480397,45.6946213 C30.8272101,45.5899689 30.8186005,45.5551138 30.8149552,45.5181718 C30.7990899,45.4114325 30.7895503,45.3805943 30.7869048,45.3436348 C30.7843467,45.3116746 30.780649,45.271733 30.7740915,45.2398426 C30.7677884,45.1079325 30.764759,45.0489764 30.7636595,44.985986 L30.6377229,37.771085 L11.254994,57.8384167 C11.2127859,57.8841603 11.1695256,57.9269218 11.1242656,57.9697182 C11.0385529,58.0442255 11.0149579,58.0676408 10.9932929,58.0870219 C10.8896702,58.1668425 10.8739693,58.1841192 10.8562687,58.2014307 C10.7456471,58.2813735 10.7287893,58.289669 10.710019,58.3029986 C10.5972755,58.3759774 10.5814699,58.3872549 10.5636647,58.3985674 C10.4469043,58.4706161 10.4300291,58.4779117 10.4092766,58.4922761 C10.2933416,58.5543089 10.2735017,58.5636566 10.2487324,58.5770909 C10.1365873,58.6270557 10.1098532,58.6425246 10.0869614,58.6489251 C9.97681603,58.698855 9.94696022,58.7073774 9.91917391,58.7198642 C9.81781773,58.7576389 9.78092808,58.7642837 9.74814254,58.7768578 C9.65062868,58.805564 9.61386119,58.8192078 9.57507656,58.8318866 C9.48242232,58.8525068 9.44262039,58.8642032 9.40469599,58.8688658 C9.3079551,58.8845566 9.26715332,58.8962704 9.22821161,58.8999506 C9.12648893,58.9167285 9.09058168,58.922356 9.05570918,58.9299658 C8.93586707,58.9400588 8.90687149,58.940565 8.87794572,58.9450705 C8.8209893,58.948065 8.76799737,58.9489899 8.70800651,58.9500371 C8.63701733,58.9512762 8.58102586,58.9522535 8.52299978,58.9512661 C8.40482578,58.9423271 8.3738305,58.9428682 8.34481747,58.9423744 Z" id="Combined-Shape" fill="#000000"></path>
    </g>
</svg>